<?xml version="1.0" encoding="UTF-8" standalone="no"?>
<!DOCTYPE svg PUBLIC "-//W3C//DTD SVG 1.1//EN" "http://www.w3.org/Graphics/SVG/1.1/DTD/svg11.dtd">
<svg width="100%" height="100%" viewBox="0 0 410 410" version="1.1" xmlns="http://www.w3.org/2000/svg" xmlns:xlink="http://www.w3.org/1999/xlink" xml:space="preserve" xmlns:serif="http://www.serif.com/" style="fill-rule:evenodd;clip-rule:evenodd;">
    <g>
        <g id="Background" transform="matrix(1,0,0,1,5,5)">
            <circle cx="200" cy="200" r="200" style="fill:url(#_Linear1);"/>
        </g>
        <g id="Matrix">
            <path id="svg_8" d="M68.477,103.933L68.477,306.067L83.003,306.067L83.003,310.917L62.903,310.917L62.903,99.083L83.003,99.083L83.003,103.933L68.477,103.933Z" style="fill:white;fill-rule:nonzero;stroke:rgb(73,190,170);stroke-opacity:0;stroke-width:1px;"/>
            <path id="Path" d="M341.521,306.067L341.521,103.933L326.995,103.933L326.995,99.083L347.097,99.083L347.097,310.917L326.995,310.917L326.995,306.067L341.521,306.067Z" style="fill:white;fill-rule:nonzero;stroke:rgb(73,190,170);stroke-opacity:0;stroke-width:1px;"/>
        </g>
        <g id="Plus">
            <g transform="matrix(0.448842,0,0,1.24411,130.919,69.0702)">
                <path d="M178.532,38.779L171.79,36.347L158.307,36.347L151.565,38.779L151.565,179.737L158.307,182.169L171.79,182.169L178.532,179.737L178.532,38.779Z" style="fill:white;"/>
            </g>
            <g transform="matrix(2.74836e-17,-0.448842,1.24411,7.618e-17,69.0702,279.081)">
                <path d="M178.532,38.779L171.79,36.347L158.307,36.347L151.565,38.779L151.565,179.737L158.307,182.169L171.79,182.169L178.532,179.737L178.532,38.779Z" style="fill:white;"/>
            </g>
        </g>
    </g>
    <defs>
        <linearGradient id="_Linear1" x1="0" y1="0" x2="1" y2="0" gradientUnits="userSpaceOnUse" gradientTransform="matrix(400,-400,400,400,0,400)"><stop offset="0" style="stop-color:rgb(50,159,91);stop-opacity:1"/><stop offset="1" style="stop-color:rgb(46,82,102);stop-opacity:1"/></linearGradient>
    </defs>
</svg>
