<?xml version="1.0" encoding="UTF-8" standalone="no"?>
<!DOCTYPE svg PUBLIC "-//W3C//DTD SVG 1.1//EN" "http://www.w3.org/Graphics/SVG/1.1/DTD/svg11.dtd">
<svg width="100%" height="100%" viewBox="0 0 410 410" version="1.1" xmlns="http://www.w3.org/2000/svg" xmlns:xlink="http://www.w3.org/1999/xlink" xml:space="preserve" xmlns:serif="http://www.serif.com/" style="fill-rule:evenodd;clip-rule:evenodd;">
    <g>
        <g id="Background" transform="matrix(1,0,0,1,5,5)">
            <circle cx="200" cy="200" r="200" style="fill:url(#_Linear1);"/>
        </g>
        <g id="Mermaid" transform="matrix(0.97003,0,0,0.97003,6.14377,6.14375)">
            <path id="svg_4" d="M320.442,109.817C269.336,107.63 222.41,139.074 204.999,187.172C187.588,139.074 140.662,107.63 89.557,109.817C87.854,150.371 107.255,189.043 140.781,211.924C157.961,223.723 168.227,243.295 168.17,264.136L168.17,300.29L241.836,300.29L241.836,264.136C241.776,243.296 252.04,223.724 269.218,211.924C302.753,189.052 322.156,150.373 320.442,109.817L320.442,109.817L320.442,109.817Z" style="fill:white;fill-rule:nonzero;stroke:rgb(73,190,170);stroke-opacity:0;stroke-width:1px;"/>
        </g>
        <g id="Matrix">
            <path id="svg_8" d="M68.477,103.933L68.477,306.067L83.003,306.067L83.003,310.917L62.903,310.917L62.903,99.083L83.003,99.083L83.003,103.933L68.477,103.933Z" style="fill:white;fill-rule:nonzero;stroke:rgb(73,190,170);stroke-opacity:0;stroke-width:1px;"/>
            <path id="Path" d="M341.521,306.067L341.521,103.933L326.995,103.933L326.995,99.083L347.097,99.083L347.097,310.917L326.995,310.917L326.995,306.067L341.521,306.067Z" style="fill:white;fill-rule:nonzero;stroke:rgb(73,190,170);stroke-opacity:0;stroke-width:1px;"/>
        </g>
    </g>
    <defs>
        <linearGradient id="_Linear1" x1="0" y1="0" x2="1" y2="0" gradientUnits="userSpaceOnUse" gradientTransform="matrix(400,-400,400,400,0,400)"><stop offset="0" style="stop-color:rgb(69,105,144);stop-opacity:1"/><stop offset="1" style="stop-color:rgb(73,190,170);stop-opacity:1"/></linearGradient>
    </defs>
</svg>
